<?xml version="1.0" standalone="no"?>
<!DOCTYPE svg PUBLIC "-//W3C//DTD SVG 20010904//EN"
 "http://www.w3.org/TR/2001/REC-SVG-20010904/DTD/svg10.dtd">
<svg version="1.0" xmlns="http://www.w3.org/2000/svg"
 width="1280.000000pt" height="640.000000pt" viewBox="0 0 1280.000000 640.000000"
 preserveAspectRatio="xMidYMid meet">
<metadata>
Created by potrace 1.15, written by Peter Selinger 2001-2017
</metadata>
<g transform="translate(0.000000,640.000000) scale(0.100000,-0.100000)"
fill="#ffffff" stroke="none">
<path d="M5850 5094 c-912 -26 -1690 -88 -2445 -195 -1423 -202 -2498 -537
-3033 -946 -130 -100 -255 -247 -298 -350 -28 -67 -74 -268 -73 -323 1 -140
67 -277 197 -412 228 -236 595 -436 1152 -626 270 -92 713 -212 1016 -276 59
-13 89 -27 170 -82 587 -399 1754 -574 3836 -574 908 0 1517 30 2123 106 746
93 1269 237 1660 459 102 58 121 65 260 95 826 177 1491 417 1890 681 202 134
358 292 415 422 11 25 34 101 51 169 35 139 36 219 2 319 -65 192 -288 405
-612 583 -890 491 -2597 831 -4666 931 -287 14 -1376 27 -1645 19z"/>
</g>
</svg>
